<svg width="202" height="32" viewBox="0 0 202 32" fill="none" xmlns="http://www.w3.org/2000/svg">
<path d="M83.1545 29.7421V2.25785H104.238V7.85873H90.3156V13.7797H102.558V19.2605H90.3156V29.7421H83.1545Z" fill="white"/>
<path d="M107.183 29.7421V2.25785H114.344V29.7421H107.183Z" fill="white"/>
<path d="M125.63 29.7421V8.13877H116.709V2.25785H141.713V8.13877H132.791V29.7421H125.63Z" fill="white"/>
<path d="M155.534 30.2222C151.107 30.2222 147.733 29.0487 145.413 26.7017C143.119 24.3546 141.972 20.7807 141.972 15.98C141.972 12.8062 142.532 10.1791 143.652 8.09877C144.799 5.99177 146.453 4.41819 148.613 3.37803C150.8 2.3112 153.427 1.77778 156.494 1.77778C158.335 1.77778 160.068 1.99115 161.695 2.41788C163.322 2.84461 164.762 3.48471 166.016 4.33818C167.269 5.16497 168.243 6.21847 168.936 7.49867C169.63 8.7522 169.977 10.2324 169.977 11.9394H162.935C162.935 11.2193 162.775 10.5792 162.455 10.0191C162.135 9.43231 161.682 8.95223 161.095 8.57884C160.535 8.17878 159.882 7.8854 159.135 7.69871C158.388 7.48534 157.601 7.37865 156.774 7.37865C155.548 7.37865 154.454 7.53868 153.494 7.85873C152.56 8.17878 151.787 8.67219 151.174 9.33896C150.56 10.0057 150.093 10.8192 149.773 11.7793C149.48 12.7395 149.333 13.8597 149.333 15.1399V16.9001C149.333 18.6071 149.6 20.034 150.133 21.1808C150.667 22.3277 151.467 23.1945 152.534 23.7812C153.627 24.3413 154.961 24.6213 156.534 24.6213C157.761 24.6213 158.855 24.4347 159.815 24.0613C160.802 23.6879 161.575 23.1545 162.135 22.461C162.722 21.7409 163.015 20.8874 163.015 19.9006V19.7006H155.614V14.6598H169.977V29.7421H165.816L165.136 26.8617C164.309 27.6085 163.415 28.2352 162.455 28.742C161.522 29.2487 160.482 29.6221 159.335 29.8622C158.215 30.1022 156.948 30.2222 155.534 30.2222Z" fill="white"/>
<path d="M187.236 30.2222C184.223 30.2222 181.636 29.7021 179.475 28.662C177.342 27.5951 175.701 26.0082 174.554 23.9012C173.408 21.7942 172.834 19.1538 172.834 15.98C172.834 12.8062 173.408 10.1791 174.554 8.09877C175.701 5.99177 177.342 4.41819 179.475 3.37803C181.636 2.3112 184.223 1.77778 187.236 1.77778C190.25 1.77778 192.824 2.3112 194.958 3.37803C197.118 4.41819 198.772 5.99177 199.918 8.09877C201.065 10.1791 201.639 12.8062 201.639 15.98C201.639 19.1538 201.065 21.7942 199.918 23.9012C198.772 26.0082 197.118 27.5951 194.958 28.662C192.824 29.7021 190.25 30.2222 187.236 30.2222ZM187.236 24.6213C188.383 24.6213 189.397 24.448 190.277 24.1013C191.157 23.7545 191.89 23.2478 192.477 22.581C193.091 21.9143 193.544 21.1008 193.837 20.1406C194.131 19.1805 194.277 18.1003 194.277 16.9001V15.1399C194.277 13.913 194.131 12.8195 193.837 11.8594C193.544 10.8992 193.091 10.0857 192.477 9.41897C191.89 8.7522 191.157 8.24546 190.277 7.89874C189.397 7.55202 188.383 7.37865 187.236 7.37865C186.063 7.37865 185.036 7.55202 184.156 7.89874C183.276 8.24546 182.542 8.7522 181.956 9.41897C181.369 10.0857 180.929 10.8992 180.635 11.8594C180.342 12.8195 180.195 13.913 180.195 15.1399V16.9001C180.195 18.1003 180.342 19.1805 180.635 20.1406C180.929 21.1008 181.369 21.9143 181.956 22.581C182.542 23.2478 183.276 23.7545 184.156 24.1013C185.036 24.448 186.063 24.6213 187.236 24.6213Z" fill="white"/>
<path d="M0.121094 31.8261L12.0338 31.8261L27.9562 15.913L12.0338 0L0.121099 0L16.0435 15.913L0.121094 31.8261Z" fill="white"/>
<path d="M60.194 31.8261L48.2813 31.8261L32.3589 15.913L48.2813 0L60.194 0L44.2716 15.913L60.194 31.8261Z" fill="white"/>
<path d="M15.9561 31.8261H27.8688L43.7912 15.913L27.8688 0L15.9561 0L31.8785 15.913L15.9561 31.8261Z" fill="white"/>
<path d="M76.0435 32L64.1308 32L48.2084 16.087L64.1308 0.173913L76.0435 0.173913L60.1211 16.087L76.0435 32Z" fill="white"/>
</svg>
